{
  "accessors": [
    {
      "bufferView": 2,
      "componentType": 5126,
      "count": 13625,
      "max": [
        39.5181884765625,
        32.812313079833984,
        147.46014404296875
      ],
      "min": [
        -39.5181884765625,
        -34.223243713378906,
        -0.0002040266990661621
      ],
      "type": "VEC3"
    },
    {
      "bufferView": 2,
      "byteOffset": 163500,
      "componentType": 5126,
      "count": 13625,
      "max": [
        0.9999743103981018,
        0.9999346137046814,
        0.9996531009674072
      ],
      "min": [
        -0.9999743103981018,
        -0.9996845126152039,
        -1.0
      ],
      "type": "VEC3"
    },
    {
      "bufferView": 1,
      "componentType": 5126,
      "count": 13625,
      "max": [
        0.9859780073165894,
        0.9864721298217773
      ],
      "min": [
        0.013525635004043579,
        0.013527840375900269
      ],
      "type": "VEC2"
    },
    {
      "bufferView": 0,
      "componentType": 5125,
      "count": 74424,
      "type": "SCALAR"
    }
  ],
  "asset": {
    "extras": {
      "author": "BaluCG (https://sketchfab.com/BaluCG)",
      "license": "SKETCHFAB Standard (https://sketchfab.com/licenses)",
      "source": "https://sketchfab.com/3d-models/character201-bunny-def80376fcaa4fa08486c456efbbc03e",
      "title": "Character201 Bunny"
    },
    "generator": "Sketchfab-15.77.0",
    "version": "2.0"
  },
  "bufferViews": [
    {
      "buffer": 0,
      "byteLength": 297696,
      "name": "floatBufferViews",
      "target": 34963
    },
    {
      "buffer": 0,
      "byteLength": 109000,
      "byteOffset": 297696,
      "byteStride": 8,
      "name": "floatBufferViews",
      "target": 34962
    },
    {
      "buffer": 0,
      "byteLength": 327000,
      "byteOffset": 406696,
      "byteStride": 12,
      "name": "floatBufferViews",
      "target": 34962
    }
  ],
  "buffers": [
    {
      "byteLength": 733696,
      "uri": "scene.bin"
    }
  ],
  "images": [
    {
      "uri": "textures/Bunny_baseColor.png"
    },
    {
      "uri": "textures/Bunny_metallicRoughness.png"
    }
  ],
  "materials": [
    {
      "doubleSided": true,
      "name": "Bunny",
      "pbrMetallicRoughness": {
        "baseColorTexture": {
          "index": 0
        },
        "metallicFactor": 0.0,
        "metallicRoughnessTexture": {
          "index": 1
        }
      }
    }
  ],
  "meshes": [
    {
      "name": "Bunny_Bunny_0",
      "primitives": [
        {
          "attributes": {
            "NORMAL": 1,
            "POSITION": 0,
            "TEXCOORD_0": 2
          },
          "indices": 3,
          "material": 0,
          "mode": 4
        }
      ]
    }
  ],
  "nodes": [
    {
      "children": [
        1
      ],
      "matrix": [
        1.0,
        0.0,
        0.0,
        0.0,
        0.0,
        2.220446049250313e-16,
        -1.0,
        0.0,
        0.0,
        1.0,
        2.220446049250313e-16,
        0.0,
        0.0,
        0.0,
        0.0,
        1.0
      ],
      "name": "Sketchfab_model"
    },
    {
      "children": [
        2
      ],
      "matrix": [
        0.009999999776482582,
        0.0,
        0.0,
        0.0,
        0.0,
        0.0,
        0.009999999776482582,
        0.0,
        0.0,
        -0.009999999776482582,
        0.0,
        0.0,
        0.0,
        0.0,
        0.0,
        1.0
      ],
      "name": "2219989848a142a48115ea4b8fe06c13.fbx"
    },
    {
      "children": [
        3
      ],
      "name": "RootNode"
    },
    {
      "children": [
        4
      ],
      "matrix": [
        1.0,
        0.0,
        0.0,
        0.0,
        0.0,
        2.220446049250313e-16,
        -1.0,
        0.0,
        0.0,
        1.0,
        2.220446049250313e-16,
        0.0,
        0.0,
        0.0,
        0.0,
        1.0
      ],
      "name": "Bunny"
    },
    {
      "mesh": 0,
      "name": "Bunny_Bunny_0"
    }
  ],
  "samplers": [
    {
      "magFilter": 9729,
      "minFilter": 9987,
      "wrapS": 10497,
      "wrapT": 10497
    }
  ],
  "scene": 0,
  "scenes": [
    {
      "name": "Sketchfab_Scene",
      "nodes": [
        0
      ]
    }
  ],
  "textures": [
    {
      "sampler": 0,
      "source": 0
    },
    {
      "sampler": 0,
      "source": 1
    }
  ]
}
